<svg width="11" height="10" viewBox="0 0 11 10" fill="none" xmlns="http://www.w3.org/2000/svg">
<path d="M5.58887 3.22522V6.80877H10.9642V3.22522H5.58887ZM7.77482 5.73371C7.38063 5.73371 7.05811 5.41119 7.05811 5.017C7.05811 4.6228 7.38063 4.30029 7.77482 4.30029C8.16901 4.30029 8.49152 4.6228 8.49152 5.017C8.49152 5.41119 8.16901 5.73371 7.77482 5.73371Z" fill="#FEBF00"/>
<path d="M10.9997 2.3293H5.19438C4.9077 2.3293 4.69269 2.54431 4.69269 2.83099V7.16707C4.69269 7.45375 4.9077 7.66876 5.19438 7.66876H10.9997V8.95884C10.9997 9.5322 10.5338 9.99806 9.96047 9.99806H2.00504C1.43168 10.0339 0.96582 9.56804 0.96582 8.99467V1.03923C0.96582 0.46586 1.43168 0 2.00504 0H9.96047C10.5338 0 10.9997 0.46586 10.9997 1.03923V2.3293Z" fill="#FEBF00"/>
<path d="M5.58887 3.22522V6.80877H10.9642V3.22522H5.58887ZM7.77482 5.73371C7.38063 5.73371 7.05811 5.41119 7.05811 5.017C7.05811 4.6228 7.38063 4.30029 7.77482 4.30029C8.16901 4.30029 8.49152 4.6228 8.49152 5.017C8.49152 5.41119 8.16901 5.73371 7.77482 5.73371Z" fill="#FEBF00"/>
<path d="M5.58887 3.22522V6.80877H10.9642V3.22522H5.58887ZM7.77482 5.73371C7.38063 5.73371 7.05811 5.41119 7.05811 5.017C7.05811 4.6228 7.38063 4.30029 7.77482 4.30029C8.16901 4.30029 8.49152 4.6228 8.49152 5.017C8.49152 5.41119 8.16901 5.73371 7.77482 5.73371Z" fill="#FEBF00"/>
</svg>
