<svg width="12" height="12" viewBox="0 0 12 12" fill="none" xmlns="http://www.w3.org/2000/svg">
<path d="M6 0C2.68631 0 0 2.68627 0 6C0 9.31373 2.68627 12 6 12C9.31373 12 12 9.31373 12 6C12 2.68627 9.31373 0 6 0ZM6 2.06257C6.20717 2.06257 6.37497 2.2305 6.37497 2.43753V5.78327L8.9472 7.27152C9.12651 7.3751 9.19138 7.60189 9.0878 7.78135C8.98421 7.96081 8.75153 8.01965 8.57224 7.91606C7.65332 7.3853 6.72851 6.85103 5.81244 6.32225C5.70048 6.25737 5.62489 6.13862 5.62489 5.99998V2.43748C5.62489 2.23031 5.79297 2.06257 6 2.06257Z" fill="#694296"/>
</svg>
