<svg width="21" height="24" viewBox="0 0 21 24" fill="none" xmlns="http://www.w3.org/2000/svg">
<path d="M10.4862 5C9.38287 5 8.5 5.88169 8.5 6.92369V8.5H12.5V6.92369C12.4725 5.88169 11.5896 5 10.4862 5Z" fill="white"/>
<path d="M19.5559 2.66397L11.7358 0.18765C10.9362 -0.0625502 10.0618 -0.0625502 9.2623 0.18765L1.44217 2.66397C0.96742 2.81402 0.642578 3.26433 0.642578 3.76459V6.71602C0.642578 13.4695 3.94061 19.7978 9.46208 23.6748C9.76184 23.8999 10.1367 24 10.4865 24C10.8363 24 11.211 23.9 11.5109 23.6748C14.2842 21.7487 16.4828 19.1975 18.0069 16.271C19.5309 13.3694 20.3554 10.0928 20.3554 6.71602L20.3556 3.76477C20.3805 3.26455 20.0308 2.81441 19.556 2.66415L19.5559 2.66397ZM14.7339 15.3955H6.26421V8.517H7.41359V7.04128C7.41359 5.34049 8.78777 3.93963 10.5117 3.93963C12.2356 3.93963 13.6098 5.31539 13.6098 7.04128V8.517H14.7592L14.7588 15.3955H14.7339Z" fill="white"/>
</svg>
